<svg width="949" height="175" viewBox="0 0 949 175" fill="none" xmlns="http://www.w3.org/2000/svg">
<mask id="mask0_137_2" style="mask-type:luminance" maskUnits="userSpaceOnUse" x="521" y="34" width="106" height="106">
<path d="M627 34H521V140H627V34Z" fill="white"/>
</mask>
<g mask="url(#mask0_137_2)">
<path d="M570.529 34.0285C570.301 34.0493 569.575 34.1218 568.923 34.1736C553.867 35.531 539.765 43.6545 530.833 56.1403C525.86 63.0827 522.679 70.9575 521.477 79.2986C521.052 82.2105 521 83.0705 521 87.0181C521 90.9661 521.052 91.8261 521.477 94.7375C524.357 114.643 538.522 131.366 557.732 137.562C561.172 138.671 564.799 139.428 568.923 139.883C570.529 140.06 577.471 140.06 579.077 139.883C586.196 139.096 592.226 137.334 598.174 134.298C599.086 133.832 599.262 133.708 599.137 133.604C599.054 133.542 595.169 128.33 590.506 122.03L582.03 110.581L571.41 94.8621C565.565 86.2204 560.758 79.1538 560.716 79.1538C560.675 79.1432 560.633 86.1272 560.613 94.6545C560.582 109.586 560.571 110.187 560.385 110.539C560.115 111.047 559.908 111.254 559.473 111.482C559.141 111.648 558.851 111.679 557.287 111.679H555.494L555.017 111.379C554.707 111.182 554.479 110.922 554.323 110.622L554.106 110.156L554.126 89.3806L554.157 68.5951L554.479 68.191C554.644 67.9734 554.997 67.6936 555.245 67.5589C555.67 67.3517 555.836 67.331 557.629 67.331C559.742 67.331 560.095 67.4138 560.644 68.0148C560.799 68.1806 566.55 76.843 573.43 87.2773C580.31 97.7113 589.718 111.959 594.34 118.953L602.733 131.667L603.158 131.387C606.919 128.942 610.898 125.46 614.048 121.833C620.752 114.135 625.073 104.747 626.523 94.7375C626.948 91.8261 627 90.9661 627 87.0181C627 83.0705 626.948 82.2105 626.523 79.2986C623.643 59.3939 609.478 42.6702 590.268 36.4739C586.879 35.3755 583.274 34.6191 579.233 34.1632C578.238 34.0596 571.389 33.9456 570.529 34.0285ZM592.226 66.0876C592.724 66.3363 593.128 66.8129 593.273 67.3102C593.356 67.5796 593.376 73.3407 593.356 86.3238L593.325 104.954L590.04 99.9183L586.745 94.8828V81.34C586.745 72.5843 586.786 67.6625 586.849 67.4242C587.014 66.844 587.377 66.3881 587.874 66.1186C588.299 65.901 588.454 65.8803 590.082 65.8803C591.615 65.8803 591.884 65.901 592.226 66.0876Z" fill="white"/>
</g>
<mask id="mask1_137_2" style="mask-type:luminance" maskUnits="userSpaceOnUse" x="183" y="34" width="109" height="105">
<path d="M291.584 34H183V139H291.584V34Z" fill="white"/>
</mask>
<g mask="url(#mask1_137_2)">
<path fill-rule="evenodd" clip-rule="evenodd" d="M252.19 130.905C249.573 130.905 247.455 128.847 247.455 126.303C247.455 123.759 249.573 121.707 252.19 121.707C254.807 121.707 256.924 123.759 256.924 126.303C256.924 128.847 254.807 130.905 252.19 130.905ZM237.682 139C265.252 139 263.531 127.379 263.531 127.379L263.498 115.342H237.194V111.727H273.944C273.944 111.727 291.584 113.674 291.584 86.6383C291.584 59.6021 276.192 60.555 276.192 60.555H267V73.1058C267 73.1058 267.494 88.0667 251.853 88.0667H225.76C225.76 88.0667 211.101 87.8411 211.101 101.842V124.988C211.101 124.988 208.876 139 237.682 139ZM222.4 42.0955C225.016 42.0955 227.129 44.1532 227.129 46.6969C227.129 49.2406 225.016 51.2932 222.4 51.2932C219.783 51.2932 217.665 49.2406 217.665 46.6969C217.665 44.1532 219.783 42.0955 222.4 42.0955ZM236.901 34C209.337 34 211.058 45.6203 211.058 45.6203L211.09 57.6584H237.395V61.2729H200.639C200.639 61.2729 183 59.3253 183 86.3617C183 113.398 198.397 112.445 198.397 112.445H207.584V99.8943C207.584 99.8943 207.09 84.9333 222.737 84.9333H248.824C248.824 84.9333 263.482 85.1589 263.482 71.1576V48.012C263.482 48.012 265.708 34 236.901 34Z" fill="white"/>
</g>
<path fill-rule="evenodd" clip-rule="evenodd" d="M42.0975 39C41.9882 39.0156 41.9962 39.1447 42.0041 39.2739C42.0041 71.149 42.0041 103.02 42.0041 134.894C74.4848 135.106 107.364 134.923 140 134.984C140 102.989 140 70.9953 140 39C107.367 39 74.7307 39 42.0975 39ZM91.7467 123.853C89.4794 126.092 85.9016 127.412 81.5 127.412C74.2808 127.412 70.2726 123.966 67.714 119.2C70.1769 117.659 72.6938 116.171 75.2595 114.729C76.3058 117.596 79.8403 120.819 83.8288 118.835C86.357 117.577 86.0652 113.762 86.0652 109.62C86.0652 101.021 86.0652 91.0999 86.0652 83.3419C86.0571 83.2132 86.0493 83.0844 86.1576 83.0686C89.1699 83.0686 92.182 83.0686 95.1935 83.0686C95.1935 89.9795 95.1935 97.7973 95.1935 105.149C95.1935 113.151 95.7773 119.875 91.7467 123.853ZM132.174 115.916C131.661 123.409 125.415 127.388 116.991 127.412C108.733 127.434 103.447 123.839 100.223 118.287C102.541 116.725 105.167 115.466 107.583 114C109.516 116.96 112.864 119.806 117.83 119.383C120.923 119.118 124.514 116.648 122.487 112.904C121.504 111.089 119.128 110.168 116.991 109.255C110.211 106.357 102.257 103.7 103.018 93.2875C103.272 89.8101 104.907 87.3649 107.024 85.6233C109.193 83.8389 112.099 82.6428 115.967 82.522C122.992 82.3017 126.845 85.3624 129.474 89.6384C127.237 91.3088 124.772 92.759 122.301 94.2001C121.49 91.7594 117.575 89.3798 114.29 90.8243C112.796 91.4805 111.454 93.4095 112.241 95.7508C112.943 97.8391 115.806 98.982 118.109 99.9488C125.081 102.872 132.872 105.729 132.174 115.916Z" fill="white"/>
<path d="M865.917 110.979C868.063 111.073 870.255 111.141 872.475 111.141C874.718 111.141 876.934 111.095 879.106 110.979C876.934 113.701 874.788 116.109 872.517 118.404L872.549 118.374C870.29 116.106 868.121 113.693 866.077 111.183L865.917 110.979ZM843.688 107.954C847.913 108.994 853.066 109.879 858.325 110.422L858.836 110.464C862.054 114.748 865.308 118.517 868.799 122.064L868.757 122.018C863.643 127.549 856.741 131.436 848.935 132.832L848.721 132.861C848.705 132.861 848.689 132.861 848.673 132.861C847.706 132.861 846.794 132.631 845.993 132.223L846.024 132.238C842.779 130.442 841.37 123.573 842.467 114.744C842.728 112.571 843.157 110.283 843.684 107.951L843.688 107.954ZM901.359 107.905C901.819 109.697 902.253 111.981 902.56 114.302L902.596 114.627C903.715 123.451 902.334 130.314 899.115 132.148C898.398 132.534 897.54 132.759 896.627 132.759C896.537 132.759 896.447 132.756 896.357 132.753H896.369C888.36 131.334 881.462 127.474 876.36 122.011L876.333 121.981C879.762 118.491 882.992 114.729 885.953 110.771L886.179 110.453C891.937 109.871 897.099 108.971 902.127 107.742L901.359 107.901V107.905ZM848.249 93.7949C849.224 95.6481 850.246 97.4922 851.37 99.3454C852.49 101.187 853.636 102.987 854.806 104.744C851.42 104.264 848.151 103.659 845.026 102.922C845.904 99.9468 847.004 96.8646 848.244 93.787L848.249 93.7949ZM896.732 93.7007C898.023 96.8045 899.12 99.9014 900.029 102.903C896.908 103.644 893.611 104.272 890.202 104.744C891.372 102.971 892.543 101.145 893.638 99.2739C894.734 97.432 895.76 95.5494 896.74 93.6962L896.732 93.7007ZM839.803 73.477C841.504 79.0648 843.329 83.738 845.456 88.2444L845.162 87.5567C843.344 91.3562 841.546 96.0033 840.072 100.785L839.869 101.561C837.114 100.74 834.899 99.9355 832.742 99.031L833.19 99.1978C824.748 95.7162 819.286 91.1371 819.286 87.5079C819.286 83.8776 824.748 79.277 833.19 75.8098C835.238 74.9591 837.486 74.1916 839.803 73.477ZM905.104 73.4582C907.465 74.1652 909.707 74.9553 911.807 75.8098C920.248 79.3065 925.71 83.8776 925.71 87.5079C925.686 91.1371 920.225 95.7275 911.783 99.2012C909.735 100.052 907.492 100.816 905.178 101.531C903.462 95.9239 901.636 91.254 899.517 86.7397L899.814 87.4512C901.624 83.6552 903.427 79.0081 904.897 74.2257L905.104 73.4468V73.4582ZM890.17 70.271C893.56 70.7586 896.826 71.356 899.951 72.1008C899.073 75.0877 897.977 78.1581 896.732 81.2357C895.757 79.3939 894.734 77.5377 893.611 75.6888C892.515 73.8362 891.345 72.0328 890.175 70.2747L890.17 70.271ZM854.779 70.271C853.609 72.0517 852.438 73.8741 851.346 75.7531C850.249 77.5943 849.224 79.4472 848.249 81.2993C846.957 78.1989 845.861 75.1104 844.952 72.1008C848.073 71.3938 851.362 70.7625 854.775 70.2785L854.779 70.271ZM872.498 69.0686C876.106 69.0686 879.7 69.2274 883.234 69.5072C885.213 72.2572 887.135 75.1859 889 78.2942C890.813 81.3186 892.467 84.3837 893.962 87.4886C892.46 90.5856 890.814 93.678 889.023 96.7023C887.171 99.822 885.255 102.79 883.269 105.538C879.719 105.837 876.123 105.999 872.495 105.999C868.886 105.999 865.293 105.833 861.758 105.561C859.781 102.812 857.849 99.8708 855.992 96.7738C854.18 93.7495 852.526 90.6843 851.029 87.5794C852.508 84.4757 854.179 81.3753 855.968 78.3464C857.822 75.2276 859.737 72.271 861.723 69.5223C865.273 69.2199 868.87 69.0611 872.498 69.0611V69.0686ZM872.424 56.6639C874.686 58.9323 876.856 61.3408 878.896 63.8511L879.052 64.0515C876.906 63.957 874.714 63.8928 872.495 63.8928C870.251 63.8928 868.036 63.9382 865.862 64.0515C868.031 61.3294 870.177 58.921 872.451 56.6261L872.42 56.6563L872.424 56.6639ZM848.623 42.2515C856.632 43.673 863.526 47.5333 868.632 52.9927L868.66 53.023C865.23 56.5164 862 60.2783 859.039 64.2444L858.813 64.562C853.058 65.1404 847.898 66.0327 842.873 67.2614L843.637 67.1027C843.091 64.7888 842.686 62.5468 842.401 60.3956C841.281 51.5711 842.662 44.709 845.88 42.8829C846.684 42.5162 847.624 42.2893 848.615 42.259H848.627L848.623 42.2515ZM896.256 42.157V42.1872C896.307 42.1872 896.366 42.1835 896.428 42.1835C897.36 42.1835 898.238 42.4066 899.01 42.7998L898.979 42.7846C902.225 44.588 903.633 51.454 902.538 60.2858C902.275 62.4598 901.846 64.7509 901.32 67.0876C897.087 66.0365 891.934 65.148 886.675 64.6073L886.176 64.5657C882.953 60.2783 879.7 56.5089 876.208 52.9587L876.255 53.0041C881.369 47.4841 888.259 43.5975 896.049 42.1948L896.268 42.1608L896.256 42.157ZM896.279 37.0076C886.753 38.4103 878.506 42.8942 872.483 49.3632L872.451 49.3972C866.385 42.9321 858.138 38.4782 848.845 37.1286L848.627 37.1021C848.576 37.1021 848.514 37.1021 848.451 37.1021C846.536 37.1021 844.737 37.5898 843.181 38.4443L843.235 38.4177C836.533 42.1645 835.031 53.8397 838.492 68.4902C823.651 72.9326 814 80.0328 814 87.5148C814 95.0273 823.702 102.147 838.585 106.555C835.152 121.262 836.685 132.957 843.403 136.699C844.878 137.52 846.648 138 848.533 138C848.619 138 848.705 138 848.787 137.997H848.775C858.302 136.594 866.549 132.106 872.573 125.633L872.603 125.599C878.67 132.068 886.917 136.521 896.21 137.872L896.428 137.898C896.486 137.898 896.561 137.898 896.63 137.898C898.535 137.898 900.325 137.414 901.874 136.571L901.819 136.597C908.518 132.855 910.023 121.18 906.563 106.525C921.349 102.12 931 95.0046 931 87.5113C931 79.9988 921.298 72.8797 906.415 68.4599C909.848 53.7678 908.315 42.0625 901.597 38.3157C900.107 37.4878 898.32 37 896.416 37C896.366 37 896.315 37 896.264 37H896.272L896.279 37.0076ZM883.37 87.5148C883.37 93.3489 878.49 98.0789 872.471 98.0789C866.452 98.0789 861.571 93.3489 861.571 87.5148C861.571 81.6817 866.452 76.9516 872.471 76.9516C875.482 76.9516 878.206 78.1354 880.18 80.0442C882.154 81.9575 883.37 84.596 883.37 87.5148Z" fill="white"/>
<g clip-path="url(#clip0_137_2)">
<path d="M406.5 39.6665C396.719 39.6665 388.31 42.2879 381.71 47.906C375.157 53.4837 370.87 61.6035 368.491 71.7242C367.972 73.933 369.104 76.1969 371.19 77.1217C373.275 78.0465 375.729 77.3722 377.038 75.5141C380.057 71.2322 383.071 68.6592 385.967 67.3388C388.771 66.06 391.794 65.8009 395.257 66.722C398.751 67.6514 401.456 70.3734 405.703 74.9597L405.84 75.108C409.041 78.5655 412.946 82.7834 418.287 86.0558C423.83 89.4515 430.727 91.7331 439.867 91.7331C449.647 91.7331 458.057 89.1116 464.658 83.4936C471.21 77.9159 475.497 69.7961 477.876 59.6753C478.394 57.4666 477.263 55.2026 475.177 54.2778C473.092 53.353 470.638 54.0272 469.328 55.8854C466.31 60.1674 463.296 62.7403 460.4 64.0608C457.595 65.3395 454.572 65.5986 451.11 64.6776C447.616 63.7482 444.91 61.0261 440.664 56.4397L440.527 56.2915C437.326 52.834 433.421 48.6161 428.079 45.3438C422.537 41.9481 415.64 39.6665 406.5 39.6665Z" fill="white"/>
<path d="M373.134 82.2666C363.353 82.2666 354.944 84.888 348.343 90.5061C341.79 96.0838 337.503 104.204 335.125 114.325C334.606 116.533 335.738 118.797 337.824 119.722C339.909 120.646 342.362 119.972 343.672 118.114C346.691 113.832 349.705 111.259 352.6 109.939C355.405 108.66 358.428 108.401 361.891 109.322C365.385 110.251 368.09 112.974 372.337 117.56L372.474 117.708C375.675 121.165 379.58 125.384 384.921 128.656C390.464 132.052 397.36 134.333 406.501 134.333C416.281 134.333 424.69 131.712 431.291 126.094C437.844 120.516 442.131 112.396 444.509 102.275C445.028 100.067 443.896 97.8027 441.811 96.8778C439.726 95.953 437.272 96.6274 435.962 98.4855C432.944 102.768 429.93 105.34 427.034 106.661C424.23 107.94 421.207 108.199 417.744 107.278C414.25 106.348 411.545 103.626 407.298 99.0398L407.161 98.8916C403.959 95.4341 400.054 91.2162 394.713 87.9438C389.171 84.5482 382.274 82.2666 373.134 82.2666Z" fill="white"/>
</g>
<path d="M678.917 85.5055C674.242 77.046 673.291 69.1535 676.615 63.193C681.063 55.192 692.224 52.4025 706.339 55.0625C707.149 55.1885 707.709 55.9935 707.571 56.83C707.412 57.67 706.622 58.216 705.812 58.0165C692.768 55.556 682.818 58.0515 679.129 64.6875C676.406 69.5735 677.212 76.3915 681.431 84.011C681.87 84.739 681.644 85.6875 680.922 86.125C680.199 86.545 679.288 86.272 678.917 85.5055ZM746.049 57.1765C754.311 57.285 760.251 59.9485 762.941 64.761C766.633 71.3795 763.751 81.533 755.205 91.9945C754.625 92.6315 754.679 93.636 755.31 94.182C755.944 94.7455 756.91 94.637 757.402 93.944C766.65 82.625 769.883 71.229 765.435 63.263C762.165 57.3935 755.276 54.2925 746.1 54.1665C745.273 54.1105 744.554 54.786 744.554 55.661C744.537 56.5185 745.222 57.2115 746.066 57.173L746.049 57.1765ZM737.716 128.289C737.031 127.869 736.133 128.09 735.728 128.8C731.526 136.056 726.359 139.993 721.05 139.993C713.666 139.993 706.619 132.318 702.154 119.375C701.907 118.573 701.047 118.136 700.291 118.426C699.518 118.717 699.13 119.613 699.43 120.397C704.246 134.379 712.157 143 721.05 143C727.52 143 733.514 138.425 738.205 130.347C738.61 129.637 738.398 128.723 737.713 128.286L737.716 128.289ZM770.815 116.187C770.798 122.038 764.433 125.409 759.846 122.021C748.806 128.765 727.696 125.339 707.834 113.435C699.379 108.367 691.961 102.277 686.247 95.771C685.684 95.169 685.704 94.1855 686.318 93.601C686.916 93.0375 687.864 93.09 688.394 93.748C693.895 100.02 701.067 105.924 709.275 110.828C728.03 122.056 747.77 125.391 757.861 119.725C755.61 115.623 757.72 110.429 762.114 109.225C766.525 108.021 770.832 111.465 770.815 116.187ZM685.036 116.187C685.053 121.748 679.217 125.209 674.593 122.385C669.97 119.578 670.057 112.596 674.752 109.915C673.696 96.478 687.304 78.488 707.871 66.1645C716.413 61.0615 725.31 57.432 733.659 55.5735C735.451 55.318 735.998 57.9815 734.274 58.51C726.224 60.295 717.608 63.816 709.312 68.772C689.96 80.3675 677.162 97.0835 677.601 109.04C677.776 109.022 677.935 109.004 678.11 109.004C681.941 109.004 685.036 112.231 685.036 116.187ZM714.128 38.182C714.445 28.9595 727.662 28.9595 727.979 38.182C727.979 38.2905 727.962 38.4025 727.962 38.4935C739.441 44.6535 747.402 65.6185 747.402 89.8455C747.402 99.817 746.066 109.368 743.551 117.663C743.339 118.482 742.515 118.976 741.722 118.72C740.929 118.465 740.511 117.573 740.791 116.771C743.2 108.77 744.5 99.509 744.5 89.8455C744.5 67.022 737.186 47.408 727.203 41.4825C723.862 48.171 714.111 45.7105 714.128 38.182ZM719.997 84.7565C717.291 85.376 715.566 88.1305 716.146 90.9375C716.727 93.7445 719.4 95.533 722.107 94.931C728.647 93.4715 726.518 83.297 719.997 84.7565Z" fill="white"/>
<defs>
<clipPath id="clip0_137_2">
<rect width="143" height="142" fill="white" transform="translate(335 16)"/>
</clipPath>
</defs>
</svg>
